<svg xmlns="http://www.w3.org/2000/svg" width="1920" height="1080"><path d="M971,1475L-97,1632L1517,1617Z" fill="#070707" stroke="#070707" stroke-width="1.51"/><path d="M1517,1617L-97,1632L1789,1661Z" fill="#000000" stroke="#000000" stroke-width="1.51"/><path d="M-97,1632L-282,1654L1789,1661Z" fill="#121212" stroke="#121212" stroke-width="1.51"/><path d="M332,-530L1243,-459L1969,-552Z" fill="#252525" stroke="#252525" stroke-width="1.51"/><path d="M1969,-552L2119,-47L2320,-496Z" fill="#202020" stroke="#202020" stroke-width="1.51"/><path d="M2295,986L1996,1084L2339,1282Z" fill="#000000" stroke="#000000" stroke-width="1.51"/><path d="M1984,287L2142,592L2369,99Z" fill="#0b0b0b" stroke="#0b0b0b" stroke-width="1.51"/><path d="M2142,592L2295,986L2369,99Z" fill="#000000" stroke="#000000" stroke-width="1.51"/><path d="M2320,-496L2119,-47L2369,99Z" fill="#1a1a1a" stroke="#1a1a1a" stroke-width="1.51"/><path d="M2295,986L2339,1282L2369,99Z" fill="#000000" stroke="#000000" stroke-width="1.51"/><path d="M2339,1282L1789,1661L2383,1475Z" fill="#000000" stroke="#000000" stroke-width="1.51"/><path d="M2369,99L2339,1282L2383,1475Z" fill="#000000" stroke="#000000" stroke-width="1.51"/><path d="M1996,1084L1789,1661L2339,1282Z" fill="#000000" stroke="#000000" stroke-width="1.51"/><path d="M2119,-47L1984,287L2369,99Z" fill="#131313" stroke="#131313" stroke-width="1.51"/><path d="M1969,-552L1966,-81L2119,-47Z" fill="#1d1d1d" stroke="#1d1d1d" stroke-width="1.51"/><path d="M2142,592L1996,1084L2295,986Z" fill="#000000" stroke="#000000" stroke-width="1.51"/><path d="M1794,760L1996,1084L2142,592Z" fill="#000000" stroke="#000000" stroke-width="1.51"/><path d="M1712,1122L1789,1661L1996,1084Z" fill="#000000" stroke="#000000" stroke-width="1.51"/><path d="M1966,-81L1984,287L2119,-47Z" fill="#151515" stroke="#151515" stroke-width="1.51"/><path d="M1984,287L1786,394L2142,592Z" fill="#060606" stroke="#060606" stroke-width="1.51"/><path d="M1786,394L1794,760L2142,592Z" fill="#000000" stroke="#000000" stroke-width="1.51"/><path d="M332,-530L762,-405L1243,-459Z" fill="#282828" stroke="#282828" stroke-width="1.51"/><path d="M1595,37L1586,286L1786,394Z" fill="#0e0e0e" stroke="#0e0e0e" stroke-width="1.51"/><path d="M1474,-369L1595,37L1966,-81Z" fill="#1a1a1a" stroke="#1a1a1a" stroke-width="1.51"/><path d="M1243,-459L1474,-369L1969,-552Z" fill="#232323" stroke="#232323" stroke-width="1.51"/><path d="M1474,-369L1966,-81L1969,-552Z" fill="#1f1f1f" stroke="#1f1f1f" stroke-width="1.51"/><path d="M1966,-81L1595,37L1984,287Z" fill="#141414" stroke="#141414" stroke-width="1.51"/><path d="M1595,37L1786,394L1984,287Z" fill="#0e0e0e" stroke="#0e0e0e" stroke-width="1.51"/><path d="M1794,760L1712,1122L1996,1084Z" fill="#000000" stroke="#000000" stroke-width="1.51"/><path d="M1786,394L1694,720L1794,760Z" fill="#000000" stroke="#000000" stroke-width="1.51"/><path d="M1712,1122L1517,1617L1789,1661Z" fill="#000000" stroke="#000000" stroke-width="1.51"/><path d="M1415,1498L1517,1617L1712,1122Z" fill="#000000" stroke="#000000" stroke-width="1.51"/><path d="M1385,1210L1415,1498L1712,1122Z" fill="#000000" stroke="#000000" stroke-width="1.51"/><path d="M1694,720L1350,848L1712,1122Z" fill="#000000" stroke="#000000" stroke-width="1.51"/><path d="M1563,584L1694,720L1786,394Z" fill="#000000" stroke="#000000" stroke-width="1.51"/><path d="M1694,720L1712,1122L1794,760Z" fill="#000000" stroke="#000000" stroke-width="1.51"/><path d="M1586,286L1563,584L1786,394Z" fill="#060606" stroke="#060606" stroke-width="1.51"/><path d="M1474,-369L1336,-111L1595,37Z" fill="#1a1a1a" stroke="#1a1a1a" stroke-width="1.51"/><path d="M1350,848L1385,1210L1712,1122Z" fill="#000000" stroke="#000000" stroke-width="1.51"/><path d="M1563,584L1350,848L1694,720Z" fill="#000000" stroke="#000000" stroke-width="1.51"/><path d="M1148,558L1563,584L1586,286Z" fill="#030303" stroke="#030303" stroke-width="1.51"/><path d="M1328,98L1148,558L1586,286Z" fill="#0b0b0b" stroke="#0b0b0b" stroke-width="1.51"/><path d="M1328,98L1586,286L1595,37Z" fill="#121212" stroke="#121212" stroke-width="1.51"/><path d="M1336,-111L1328,98L1595,37Z" fill="#161616" stroke="#161616" stroke-width="1.51"/><path d="M1415,1498L971,1475L1517,1617Z" fill="#000000" stroke="#000000" stroke-width="1.51"/><path d="M1148,558L1350,848L1563,584Z" fill="#000000" stroke="#000000" stroke-width="1.51"/><path d="M762,-405L945,-373L1243,-459Z" fill="#222222" stroke="#222222" stroke-width="1.51"/><path d="M1243,-459L1336,-111L1474,-369Z" fill="#1f1f1f" stroke="#1f1f1f" stroke-width="1.51"/><path d="M987,198L1148,558L1328,98Z" fill="#0d0d0d" stroke="#0d0d0d" stroke-width="1.51"/><path d="M1350,848L964,1267L1385,1210Z" fill="#000000" stroke="#000000" stroke-width="1.51"/><path d="M964,1267L971,1475L1385,1210Z" fill="#000000" stroke="#000000" stroke-width="1.51"/><path d="M1385,1210L971,1475L1415,1498Z" fill="#000000" stroke="#000000" stroke-width="1.51"/><path d="M670,1370L-97,1632L971,1475Z" fill="#111111" stroke="#111111" stroke-width="1.51"/><path d="M1243,-459L1068,-116L1336,-111Z" fill="#1d1d1d" stroke="#1d1d1d" stroke-width="1.51"/><path d="M852,855L964,1267L1350,848Z" fill="#000000" stroke="#000000" stroke-width="1.51"/><path d="M1068,-116L1328,98L1336,-111Z" fill="#181818" stroke="#181818" stroke-width="1.51"/><path d="M1148,558L852,855L1350,848Z" fill="#000000" stroke="#000000" stroke-width="1.51"/><path d="M291,1387L-97,1632L670,1370Z" fill="#161616" stroke="#161616" stroke-width="1.51"/><path d="M1068,-116L987,198L1328,98Z" fill="#151515" stroke="#151515" stroke-width="1.51"/><path d="M945,-373L1068,-116L1243,-459Z" fill="#1f1f1f" stroke="#1f1f1f" stroke-width="1.51"/><path d="M987,198L811,516L1148,558Z" fill="#060606" stroke="#060606" stroke-width="1.51"/><path d="M811,516L852,855L1148,558Z" fill="#010101" stroke="#010101" stroke-width="1.51"/><path d="M945,-373L762,-405L1068,-116Z" fill="#1f1f1f" stroke="#1f1f1f" stroke-width="1.51"/><path d="M762,-405L728,148L1068,-116Z" fill="#1c1c1c" stroke="#1c1c1c" stroke-width="1.51"/><path d="M728,148L987,198L1068,-116Z" fill="#151515" stroke="#151515" stroke-width="1.51"/><path d="M499,-244L728,148L762,-405Z" fill="#212121" stroke="#212121" stroke-width="1.51"/><path d="M811,516L658,631L852,855Z" fill="#070707" stroke="#070707" stroke-width="1.51"/><path d="M852,855L571,1165L964,1267Z" fill="#070707" stroke="#070707" stroke-width="1.51"/><path d="M964,1267L670,1370L971,1475Z" fill="#030403" stroke="#030403" stroke-width="1.51"/><path d="M728,148L811,516L987,198Z" fill="#101010" stroke="#101010" stroke-width="1.51"/><path d="M571,1165L670,1370L964,1267Z" fill="#090909" stroke="#090909" stroke-width="1.51"/><path d="M658,631L538,853L852,855Z" fill="#0b0b0b" stroke="#0b0b0b" stroke-width="1.51"/><path d="M538,853L571,1165L852,855Z" fill="#0c0c0c" stroke="#0c0c0c" stroke-width="1.51"/><path d="M357,568L658,631L728,148Z" fill="#121212" stroke="#121212" stroke-width="1.51"/><path d="M728,148L658,631L811,516Z" fill="#0e0e0e" stroke="#0e0e0e" stroke-width="1.51"/><path d="M499,-244L350,-92L728,148Z" fill="#212121" stroke="#212121" stroke-width="1.51"/><path d="M332,-530L499,-244L762,-405Z" fill="#2b2b2b" stroke="#2b2b2b" stroke-width="1.51"/><path d="M237,75L357,568L728,148Z" fill="#1a1a1a" stroke="#1a1a1a" stroke-width="1.51"/><path d="M350,-92L237,75L728,148Z" fill="#202020" stroke="#202020" stroke-width="1.51"/><path d="M571,1165L291,1387L670,1370Z" fill="#111111" stroke="#111111" stroke-width="1.51"/><path d="M237,75L133,215L357,568Z" fill="#1e1e1e" stroke="#1e1e1e" stroke-width="1.51"/><path d="M357,568L538,853L658,631Z" fill="#101010" stroke="#101010" stroke-width="1.51"/><path d="M538,853L299,1051L571,1165Z" fill="#121212" stroke="#121212" stroke-width="1.51"/><path d="M299,1051L291,1387L571,1165Z" fill="#141414" stroke="#141414" stroke-width="1.51"/><path d="M357,568L201,715L538,853Z" fill="#141414" stroke="#141414" stroke-width="1.51"/><path d="M201,715L299,1051L538,853Z" fill="#151515" stroke="#151515" stroke-width="1.51"/><path d="M332,-530L350,-92L499,-244Z" fill="#2b2b2b" stroke="#2b2b2b" stroke-width="1.51"/><path d="M-50,1112L291,1387L299,1051Z" fill="#181818" stroke="#181818" stroke-width="1.51"/><path d="M-415,-484L-134,-292L332,-530Z" fill="#3a3a3a" stroke="#3a3a3a" stroke-width="1.51"/><path d="M-134,-292L-158,-196L350,-92Z" fill="#313131" stroke="#313131" stroke-width="1.51"/><path d="M332,-530L-134,-292L350,-92Z" fill="#303030" stroke="#303030" stroke-width="1.51"/><path d="M9,393L201,715L357,568Z" fill="#181818" stroke="#181818" stroke-width="1.51"/><path d="M133,215L9,393L357,568Z" fill="#1c1c1c" stroke="#1c1c1c" stroke-width="1.51"/><path d="M-158,-196L237,75L350,-92Z" fill="#2a2a2a" stroke="#2a2a2a" stroke-width="1.51"/><path d="M201,715L-102,870L299,1051Z" fill="#191919" stroke="#191919" stroke-width="1.51"/><path d="M-102,870L-50,1112L299,1051Z" fill="#1b1b1b" stroke="#1b1b1b" stroke-width="1.51"/><path d="M-50,1112L-97,1632L291,1387Z" fill="#1b1b1b" stroke="#1b1b1b" stroke-width="1.51"/><path d="M-158,-196L133,215L237,75Z" fill="#292929" stroke="#292929" stroke-width="1.51"/><path d="M9,393L-102,870L201,715Z" fill="#1b1b1b" stroke="#1b1b1b" stroke-width="1.51"/><path d="M-314,273L9,393L133,215Z" fill="#242424" stroke="#242424" stroke-width="1.51"/><path d="M-158,-196L-314,273L133,215Z" fill="#2b2b2b" stroke="#2b2b2b" stroke-width="1.51"/><path d="M-283,-160L-314,273L-158,-196Z" fill="#323232" stroke="#323232" stroke-width="1.51"/><path d="M-348,1196L-282,1654L-97,1632Z" fill="#212121" stroke="#212121" stroke-width="1.51"/><path d="M-348,1196L-97,1632L-50,1112Z" fill="#202020" stroke="#202020" stroke-width="1.51"/><path d="M-480,508L-102,870L9,393Z" fill="#202020" stroke="#202020" stroke-width="1.51"/><path d="M-314,273L-480,508L9,393Z" fill="#262626" stroke="#262626" stroke-width="1.51"/><path d="M-480,508L-330,936L-102,870Z" fill="#232323" stroke="#232323" stroke-width="1.51"/><path d="M-102,870L-330,936L-50,1112Z" fill="#1f1f1f" stroke="#1f1f1f" stroke-width="1.51"/><path d="M-330,936L-348,1196L-50,1112Z" fill="#212121" stroke="#212121" stroke-width="1.51"/><path d="M-283,-160L-158,-196L-134,-292Z" fill="#363636" stroke="#363636" stroke-width="1.51"/><path d="M-415,-484L-283,-160L-134,-292Z" fill="#3b3b3b" stroke="#3b3b3b" stroke-width="1.51"/><path d="M-480,508L-314,273L-283,-160Z" fill="#2e2e2e" stroke="#2e2e2e" stroke-width="1.51"/><path d="M-415,-484L-480,508L-283,-160Z" fill="#363636" stroke="#363636" stroke-width="1.51"/><path d="M-348,1196L-480,508L-282,1654Z" fill="#242424" stroke="#242424" stroke-width="1.51"/><path d="M-480,508L-348,1196L-330,936Z" fill="#242424" stroke="#242424" stroke-width="1.51"/></svg>